# xmcd
#
# Track frame offsets:
#	183
#	25033
#	41083
#	62533
#	81133
#
# Disc length: 1312 seconds
#
# Revision: 0
# Processed by: cddbd v1.5.1PL0 Copyright (c) Steve Scherf et al.
# Submitted via: EasyCDDAExtractor 5.0.4.1
#
DISCID=33051e05
DTITLE=Sophie SELLERS - Et Je Sais...
DYEAR=1900
DGENRE=Other
TTITLE0=Et Je Sais...
TTITLE1=Pour Notre Histoire
TTITLE2=Aime La
TTITLE3=Mon Espérence
TTITLE4=Ces Musiques Qui Donnent Le Blues
EXTD=
EXTT0=
EXTT1=
EXTT2=
EXTT3=
EXTT4=
PLAYORDER=
